<svg id="Capa_1" enable-background="new 0 0 512 512" height="512" viewBox="0 0 512 512" width="512" xmlns="http://www.w3.org/2000/svg"><g><g><path d="m436.332 257.609h-148.467v100.779h148.467c27.829 0 50.39-22.56 50.39-50.39-.001-27.828-22.561-50.389-50.39-50.389z" fill="#f6f9f9"/></g><g><path d="m450.889 259.753c1.389 4.61 2.144 9.495 2.144 14.557 0 27.829-22.56 50.39-50.39 50.39h-114.778v33.688h148.467c27.829 0 50.39-22.56 50.39-50.39-.001-22.766-15.103-41.998-35.833-48.245z" fill="#dae4ea"/></g><g><path d="m503.675 310.781c1.536-1.536 1.536-4.028 0-5.564l-12.332-12.332c-.698-.698-.961-1.72-.686-2.668l2.11-7.276c.605-2.087-.596-4.269-2.683-4.874l-10.607-3.076c-1.047-.303-1.809-1.205-1.935-2.287l-1.312-11.272c-.251-2.158-2.204-3.704-4.363-3.453l-8.974 1.044c-1.073.125-2.117-.4-2.658-1.336l-5.856-10.143c-1.087-1.882-3.493-2.526-5.375-1.44l-9.504 5.487c-1.592.919-3.603.654-4.902-.645l-9.758-9.758c-1.537-1.536-4.028-1.536-5.564 0l-6.847 6.847c-1.586 1.586-4.158 1.586-5.743 0l-6.847-6.847c-1.536-1.536-4.028-1.536-5.564 0l-6.974 6.974c-1.586 1.586-4.158 1.586-5.743 0l-6.974-6.974c-.784-.784-1.817-1.163-2.845-1.146-1.028-.017-2.061.362-2.845 1.146l-6.974 6.974c-1.586 1.586-4.158 1.586-5.743 0l-6.974-6.974c-1.536-1.536-4.027-1.536-5.564 0l-6.847 6.847c-1.586 1.586-4.158 1.586-5.743 0l-6.847-6.847c-1.537-1.536-4.028-1.536-5.564 0l-7.038 7.038c-1.586 1.586-4.158 1.586-5.743 0l-7.038-7.038c-1.537-1.536-4.028-1.536-5.564 0l-5.387 5.387v22.072l5.387 5.387c1.536 1.536 4.027 1.536 5.564 0l7.038-7.038c1.586-1.586 4.157-1.586 5.743 0l7.038 7.038c1.537 1.536 4.028 1.536 5.564 0l6.847-6.847c1.586-1.586 4.157-1.586 5.743 0l6.847 6.847c1.536 1.536 4.028 1.536 5.564 0l6.974-6.974c1.586-1.586 4.157-1.586 5.743 0l6.974 6.974c.784.784 1.817 1.163 2.845 1.146 1.028.017 2.061-.362 2.845-1.146l6.974-6.974c1.586-1.586 4.157-1.586 5.743 0l6.974 6.974c1.536 1.536 4.028 1.536 5.564 0l6.847-6.847c1.586-1.586 4.157-1.586 5.743 0l6.847 6.847c1.537 1.536 4.028 1.536 5.564 0l4.797-4.798c1.888-1.888 5.054-1.472 6.389.841l4.477 7.754c1.086 1.882 3.493 2.526 5.374 1.44l1.197-.691c1.686-.974 3.818.098 4.043 2.032l.363 3.122c.251 2.158 2.204 3.704 4.363 3.453l3.624-.422c1.923-.224 3.452 1.584 2.913 3.443l-1.072 3.698c-.605 2.087.596 4.269 2.683 4.874l5.892 1.708c1.978.574 2.617 3.058 1.16 4.515l-.215.215c-1.536 1.537-1.536 4.027 0 5.564l.233.233c1.457 1.456.818 3.941-1.161 4.515l-5.91 1.714c-2.087.605-3.288 2.788-2.683 4.874l1.072 3.698c.539 1.859-.991 3.667-2.913 3.443l-3.624-.422c-2.158-.251-4.111 1.295-4.363 3.453l-.363 3.122c-.225 1.934-2.357 3.005-4.043 2.032l-1.197-.691c-1.882-1.086-4.288-.442-5.374 1.44l-4.477 7.754c-1.335 2.313-4.501 2.729-6.389.841l-4.797-4.798c-1.537-1.536-4.028-1.536-5.564 0l-6.847 6.847c-1.586 1.586-4.158 1.586-5.743 0l-6.847-6.847c-1.536-1.536-4.028-1.536-5.564 0l-6.974 6.974c-1.586 1.586-4.158 1.586-5.743 0l-6.974-6.974c-.784-.784-1.817-1.163-2.845-1.146-1.028-.017-2.061.362-2.845 1.146l-6.974 6.974c-1.586 1.586-4.158 1.586-5.743 0l-6.974-6.974c-1.536-1.536-4.027-1.536-5.564 0l-6.847 6.847c-1.586 1.586-4.158 1.586-5.743 0l-6.847-6.847c-1.537-1.536-4.028-1.536-5.564 0l-7.038 7.038c-1.586 1.586-4.158 1.586-5.743 0l-7.038-7.038c-1.537-1.536-4.028-1.536-5.564 0l-5.387 5.387v22.072l5.387 5.387c1.536 1.537 4.027 1.537 5.564 0l7.038-7.038c1.586-1.586 4.157-1.586 5.743 0l7.038 7.038c1.537 1.537 4.028 1.537 5.564 0l6.847-6.847c1.586-1.586 4.157-1.586 5.743 0l6.847 6.847c1.536 1.537 4.028 1.537 5.564 0l6.974-6.974c1.586-1.586 4.157-1.586 5.743 0l6.974 6.974c.784.784 1.817 1.163 2.845 1.146 1.028.017 2.061-.362 2.845-1.146l6.974-6.974c1.586-1.586 4.157-1.586 5.743 0l6.974 6.974c1.536 1.537 4.028 1.537 5.564 0l6.847-6.847c1.586-1.586 4.157-1.586 5.743 0l6.847 6.847c1.537 1.537 4.028 1.537 5.564 0l9.758-9.758c1.3-1.3 3.311-1.564 4.902-.645l9.504 5.487c1.882 1.086 4.288.442 5.374-1.44l5.857-10.143c.54-.936 1.585-1.46 2.658-1.336l8.974 1.044c2.158.251 4.111-1.295 4.363-3.453l1.312-11.272c.126-1.082.889-1.984 1.935-2.287l10.607-3.076c2.087-.605 3.288-2.787 2.683-4.874l-2.115-7.294c-.275-.948-.012-1.971.686-2.669z" fill="#057096"/></g><g><path d="m503.675 310.781c1.536-1.536 1.536-4.028 0-5.564l-7.876-7.876-11.543 11.543c-.698.698-.961 1.72-.686 2.668l2.115 7.294c.605 2.087-.596 4.269-2.683 4.874l-10.607 3.076c-1.047.303-1.809 1.205-1.935 2.287l-1.312 11.272c-.251 2.158-2.204 3.704-4.363 3.453l-8.974-1.044c-1.073-.125-2.117.4-2.658 1.336l-5.857 10.144c-1.086 1.882-3.492 2.526-5.374 1.44l-9.504-5.487c-1.592-.919-3.602-.654-4.902.645l-9.758 9.758c-1.536 1.536-4.027 1.536-5.564 0l-6.847-6.847c-1.586-1.586-4.158-1.586-5.743 0l-6.847 6.847c-1.537 1.536-4.028 1.536-5.564 0l-6.974-6.974c-1.586-1.586-4.158-1.586-5.744 0l-6.974 6.974c-.784.784-1.817 1.163-2.846 1.146-1.028.017-2.061-.362-2.845-1.146l-6.974-6.974c-1.586-1.586-4.158-1.586-5.743 0l-6.974 6.974c-1.537 1.536-4.028 1.536-5.564 0l-6.847-6.847c-1.586-1.586-4.158-1.586-5.743 0l-6.847 6.847c-1.537 1.536-4.028 1.536-5.564 0l-7.038-7.038c-1.586-1.586-4.158-1.586-5.743 0l-7.038 7.038c-1.049 1.049-2.538 1.364-3.869.981v7.867l5.387 5.387c1.536 1.536 4.027 1.536 5.564 0l7.038-7.038c1.586-1.586 4.157-1.586 5.743 0l7.038 7.038c1.536 1.536 4.028 1.536 5.564 0l6.847-6.847c1.586-1.586 4.157-1.586 5.743 0l6.847 6.847c1.536 1.536 4.028 1.536 5.564 0l6.974-6.974c1.586-1.586 4.157-1.586 5.743 0l6.974 6.974c.784.784 1.817 1.163 2.845 1.146 1.028.017 2.061-.362 2.845-1.146l6.974-6.974c1.586-1.586 4.157-1.586 5.743 0l6.974 6.974c1.536 1.536 4.028 1.536 5.564 0l6.847-6.847c1.586-1.586 4.157-1.586 5.743 0l6.847 6.847c1.536 1.536 4.028 1.536 5.564 0l9.758-9.758c1.3-1.3 3.31-1.564 4.902-.645l9.504 5.487c1.882 1.086 4.288.442 5.374-1.44l5.856-10.143c.54-.936 1.585-1.46 2.658-1.336l8.973 1.044c2.158.251 4.111-1.295 4.363-3.453l1.312-11.272c.126-1.082.889-1.984 1.936-2.287l10.607-3.076c2.087-.605 3.288-2.787 2.683-4.874l-2.115-7.294c-.275-.948-.012-1.971.686-2.669z" fill="#055e7f"/></g><g><path d="m116.182 267.012h-34.445c-9.064 0-17.897 2.858-25.244 8.167l-31.633 22.863c-10.49 7.581-17.197 19.496-17.661 32.43-.844 23.518 18.043 42.921 41.377 42.921h104.866v-77.338zm-67.261 77.694c-5.239 0-10.126-3.031-12.105-7.882-2.303-5.641-.287-11.82 4.311-15.143l18.324-13.243c4.04-2.92 8.898-4.492 13.883-4.492h13.559c1.584 0 2.869 1.284 2.869 2.869v22.592c0 8.45-6.85 15.3-15.3 15.3h-25.541z" fill="#055e7f"/></g><g><path d="m116.182 267.012h-22.343v65.6c0 12.488-10.124 22.612-22.612 22.612h-56.89c7.458 10.954 20.018 18.169 34.239 18.169h104.866v-77.338z" fill="#004c67"/></g><g><path d="m179.102 187.703c-6.259-6.998-15.202-10.998-24.591-10.998h-31.76c-18.22 0-32.99 14.77-32.99 32.99v94.119c0 7.922 6.422 14.343 14.343 14.343h167.046v-105.112c0-7.922-6.422-14.343-14.343-14.343h-53.114c-9.389-.001-18.333-4.001-24.591-10.999z" fill="#f9ef63"/></g><g><g><path d="m256.807 198.701h-24.145c7.922 0 14.343 6.422 14.343 14.343v105.113h24.145v-105.112c0-7.922-6.421-14.344-14.343-14.344z" fill="#f4dd45"/></g></g><g><path d="m280.501 227.173h-31.107c-5.145 0-10.195 1.383-14.621 4.006l-98.005 58.057v84.157h143.733c5.281 0 9.562-4.281 9.562-9.562v-127.096c0-5.281-4.281-9.562-9.562-9.562z" fill="#dae4ea"/></g><g><path d="m280.501 227.173h-17.614v109.481c0 5.281-4.281 9.562-9.562 9.562h-116.557v27.176h143.733c5.281 0 9.562-4.281 9.562-9.562v-127.095c0-5.281-4.281-9.562-9.562-9.562z" fill="#b9c1cb"/></g><g><path d="m247.149 147.524-18.378-10.61c-3.201-1.848-7.295-.751-9.144 2.45l-110.586 191.54c-2.266 3.925-3.459 8.377-3.459 12.909v29.579h47.86v-44.101c0-3.98 1.048-7.891 3.038-11.338l93.119-161.287c1.848-3.2.751-7.293-2.45-9.142z" fill="#057096"/></g><g><path d="m247.149 147.524-13.169-7.603-99.898 173.028c-2.17 3.758-3.312 8.022-3.312 12.362v48.082h22.672v-44.101c0-3.98 1.048-7.891 3.038-11.338l93.119-161.287c1.848-3.201.751-7.294-2.45-9.143z" fill="#055e7f"/></g><g><circle cx="190.633" cy="253.028" fill="#dae4ea" r="17.259"/></g><g><path d="m196.564 236.815c.677 1.85 1.046 3.847 1.046 5.931 0 9.532-7.727 17.259-17.259 17.259-2.084 0-4.082-.369-5.931-1.046 2.419 6.61 8.765 11.328 16.213 11.328 9.532 0 17.259-7.727 17.259-17.259 0-7.448-4.717-13.794-11.328-16.213z" fill="#b9c1cb"/></g><g><path d="m245.087 349.618h-35.675c-12.282 0-22.238-9.956-22.238-22.238 0-12.282 9.956-22.238 22.238-22.238h35.675c12.282 0 22.238 9.956 22.238 22.238 0 12.282-9.956 22.238-22.238 22.238z" fill="#f9ef63"/></g><g><path d="m259.85 310.782c.33 1.524.514 3.102.514 4.724 0 12.282-9.956 22.238-22.238 22.238h-35.675c-5.674 0-10.834-2.142-14.763-5.639 2.168 10.01 11.065 17.514 21.724 17.514h35.676c12.282 0 22.238-9.956 22.238-22.238-.001-6.609-2.9-12.526-7.476-16.599z" fill="#f4dd45"/></g><g><path d="m245.087 356.79c16.217 0 29.41-13.193 29.41-29.41s-13.193-29.41-29.41-29.41h-35.675c-16.217 0-29.41 13.193-29.41 29.41s13.193 29.41 29.41 29.41zm-50.742-29.41c0-8.308 6.759-15.067 15.067-15.067h35.675c8.308 0 15.067 6.759 15.067 15.067s-6.759 15.066-15.067 15.066h-35.675c-8.308.001-15.067-6.758-15.067-15.066z"/><circle cx="212.987" cy="327.38" r="7.127"/><circle cx="241.512" cy="327.38" r="7.127"/><path d="m388.57 300.827h-25.818c-3.961 0-7.172 3.211-7.172 7.172s3.21 7.172 7.172 7.172h25.818c3.961 0 7.172-3.211 7.172-7.172s-3.211-7.172-7.172-7.172z"/><path d="m512 307.999c0-2.967-1.156-5.756-3.253-7.853l-10.467-10.467 1.376-4.741c1.705-5.881-1.692-12.053-7.573-13.76l-7.76-2.249-.969-8.327c-.708-6.083-6.229-10.455-12.315-9.747l-6.058.705-4.389-7.601c-2.878-5.233-10.063-7.157-15.172-4.066l-7.437 4.293-8.071-8.071c-4.328-4.326-11.374-4.328-15.706.002l-4.648 4.648-4.649-4.649c-4.328-4.326-11.374-4.328-15.706.001l-4.774 4.775-4.775-4.775c-4.159-4.304-11.674-4.304-15.833 0l-4.776 4.775-4.775-4.775c-4.135-4.309-11.572-4.308-15.707 0l-4.648 4.648-4.648-4.648c-4.135-4.309-11.572-4.308-15.707 0l-4.837 4.838-4.84-4.84c-1.976-1.975-4.519-3.038-7.111-3.21-.156-.664-.348-1.316-.582-1.953 8.967-11.542 14.058-25.909 14.058-41.138v-36.888c0-3.961-3.21-7.172-7.172-7.172s-7.172 3.211-7.172 7.172v36.888c0 11.42-3.643 22.224-10.097 31.072-2.328-.853-5.013-.945-7.489-.884v-6.956c0-11.864-9.652-21.515-21.515-21.515h-19.055l18.057-31.276c3.86-6.377 1.456-15.348-5.075-18.94l-18.378-10.61c-6.621-3.824-15.118-1.547-18.941 5.075l-27.878 48.287c-.374-.37-.739-.749-1.091-1.142-7.61-8.509-18.521-13.389-29.936-13.389h-31.76c-3.463 0-6.903.442-10.225 1.315-3.831 1.006-6.121 4.927-5.115 8.758s4.927 6.123 8.758 5.115c2.133-.56 4.348-.844 6.582-.844h31.76c7.338 0 14.353 3.137 19.245 8.607 1.374 1.536 2.876 2.948 4.465 4.253l-65.962 114.249h-8.156c-3.955 0-7.172-3.217-7.172-7.172v-94.119c0-3.057.527-6.045 1.566-8.882 1.362-3.719-.548-7.838-4.268-9.201-3.717-1.361-7.838.548-9.201 4.268-1.62 4.422-2.441 9.07-2.441 13.815v49.869c-10.639 0-21.673 3.57-30.296 9.802l-31.626 22.861c-12.384 8.95-20.095 23.15-20.628 37.985-.477 13.299 4.35 25.9 13.594 35.482 9.249 9.587 21.662 14.868 34.95 14.868h119.06c3.961 0 7.172-3.211 7.172-7.172s-3.211-7.172-7.172-7.172h-7.023v-36.929c0-2.718.718-5.398 2.077-7.752l25.52-44.203c.797.079 1.605.121 2.422.121 14.095.062 25.47-12.173 24.358-26.226l23.437-13.884c3.318-1.965 7.11-3.004 10.966-3.004h22.026c-1.284.812-41.754 21.887-41.754 21.887-3.516 1.824-4.888 6.152-3.064 9.668 1.832 3.551 6.225 4.871 9.668 3.064l37.784-19.598c3.118-1.617 6.065-3.461 8.839-5.493v119.956c0 1.318-1.072 2.391-2.391 2.391h-80.72c-3.961 0-7.172 3.211-7.172 7.172s3.211 7.172 7.172 7.172h80.72c2.444 0 4.759-.539 6.854-1.484 4.219 4.982 11.883 5.522 16.533.826l4.837-4.838 4.838 4.838c4.134 4.308 11.572 4.309 15.706 0l4.649-4.648 4.648 4.648c4.134 4.308 11.572 4.309 15.706 0l4.776-4.775 4.775 4.775c4.177 4.311 11.699 4.316 15.834 0l4.775-4.775 4.776 4.776c4.328 4.326 11.374 4.328 15.706-.001l4.647-4.648 4.649 4.649c4.328 4.326 11.374 4.328 15.706-.001l8.069-8.07 7.438 4.294c5.107 3.091 12.294 1.165 15.17-4.065l4.39-7.602 6.058.705c6.082.703 11.606-3.665 12.316-9.748l.968-8.327 7.76-2.25c5.881-1.706 9.278-7.878 7.573-13.76l-1.38-4.76 10.471-10.47c2.095-2.097 3.251-4.886 3.251-7.853zm-50.005-2.332.72.209c-.273 1.409-.271 2.861.004 4.269-5.399 1.23-9.086 6.226-8.715 11.58-4.165.524-7.719 3.392-9.103 7.368-4.216-.405-8.525 1.805-10.607 5.515l-2.45 4.243-1.932-1.933c-4.328-4.327-11.374-4.327-15.706.001l-4.647 4.648-4.649-4.649c-4.328-4.327-11.374-4.327-15.706.001l-4.774 4.775-4.775-4.775c-4.159-4.318-11.675-4.319-15.833 0l-4.776 4.775-4.775-4.775c-4.134-4.308-11.572-4.308-15.706 0l-4.649 4.648-4.648-4.648c-4.331-4.33-11.376-4.33-15.707 0l-4.838 4.838-4.839-4.839c-1.859-1.859-4.22-2.913-6.652-3.175v-51.463c2.432-.262 4.793-1.318 6.653-3.177l4.837-4.838 4.838 4.838c4.133 4.309 11.573 4.309 15.706.001l4.649-4.648 4.648 4.647c4.133 4.309 11.573 4.309 15.706.001l4.776-4.775 4.775 4.775c4.16 4.319 11.675 4.319 15.834 0l4.775-4.775 4.775 4.776c4.332 4.329 11.377 4.328 15.707-.001l4.648-4.648 4.648 4.649c4.332 4.329 11.377 4.328 15.707-.001l1.931-1.931 2.448 4.242c1.484 2.569 3.878 4.408 6.744 5.176 1.28.343 2.587.455 3.864.34 1.384 3.977 4.937 6.844 9.103 7.368-.324 5.078 2.905 9.893 7.991 11.368zm-438.046 50.071c-14.633-14.539-11.953-40.096 5.113-51.883l31.633-22.863c6.162-4.454 13.227-6.808 21.894-6.808v22.591h-9.256c-6.534 0-12.788 2.023-18.083 5.851l-18.324 13.244c-7.46 5.392-10.236 15.124-6.75 23.665 3.061 7.498 10.419 12.343 18.745 12.343h25.54c12.391 0 22.471-10.081 22.471-22.471v-5.31c2.208.783 4.579 1.216 7.048 1.23-3.492 5.532-5.625 11.91-5.57 18.487v22.408h-49.834c-9.359-.001-18.105-3.724-24.627-10.484zm58.64-44.62v18.288c0 4.482-3.646 8.128-8.128 8.128h-25.54c-5.503.235-8.019-6.955-3.594-10.04l18.324-13.243c2.835-2.049 6.183-3.132 9.681-3.132h9.257zm67.68 3.25c-2.616 4.531-3.999 9.692-3.999 14.924v36.929h-33.517v-22.408c0-3.269.864-6.492 2.498-9.323l110.347-191.126 17.55 10.132-44.202 76.559c-2.597-.943-5.396-1.459-8.314-1.459-13.471 0-24.431 10.96-24.431 24.431 0 7.483 3.385 14.188 8.701 18.673zm40.364-51.253c-5.562 0-10.088-4.525-10.088-10.088 0-5.562 4.525-10.088 10.088-10.088s10.088 4.525 10.088 10.088c-.001 5.563-4.526 10.088-10.088 10.088zm40.484-38.107-19.292 11.428 17.646-30.563h27.336c3.955 0 7.172 3.217 7.172 7.172v6.956h-14.585c-6.427 0-12.747 1.732-18.277 5.007zm255.148 93.041c-2.547 2.549-3.505 6.281-2.501 9.736l1.213 4.184-7.499 2.175c-3.828 1.11-6.599 4.386-7.06 8.345l-.938 8.057-5.759-.67c-3.921-.455-7.725 1.458-9.696 4.873l-4.239 7.34-6.699-3.868c-4.396-2.539-9.971-1.804-13.56 1.785l-7.468 7.469-4.559-4.559c-4.181-4.357-11.706-4.357-15.886.001l-4.557 4.558-4.686-4.686c-4.38-4.378-11.505-4.378-15.886.001l-4.748 4.748-4.748-4.748c-4.179-4.358-11.707-4.359-15.885-.001l-4.686 4.685-4.558-4.557c-4.179-4.359-11.706-4.358-15.885-.001l-4.559 4.558-4.748-4.748c-4.18-4.359-11.707-4.358-15.886 0l-3.783 3.783c.142-.875.235-1.765.235-2.679v-13.28l3.548 3.548c4.181 4.359 11.705 4.358 15.887 0l4.748-4.748 4.558 4.557c4.179 4.358 11.707 4.358 15.885.001l4.559-4.558 4.685 4.685c4.179 4.358 11.707 4.358 15.885.001l4.749-4.749 4.748 4.749c4.38 4.378 11.505 4.378 15.886-.001l4.684-4.685 4.558 4.557c4.18 4.359 11.705 4.358 15.887 0l4.557-4.558 2.508 2.509c4.927 5.209 14.26 3.979 17.672-2.327l2.945-5.1c2.501.873 5.265.711 7.682-.506 2.953-1.484 4.953-4.317 5.365-7.591 3.403.517 6.861-.736 9.091-3.383 2.297-2.69 2.92-6.392 1.777-9.722l2.801-.812c3.391-.983 5.939-3.611 6.818-7.03.659-2.563.281-5.19-1.002-7.395 1.268-2.199 1.64-4.813.983-7.364-1.019-4.613-5.278-6.978-9.6-7.836 1.142-3.33.522-7.032-1.776-9.721-2.228-2.648-5.678-3.905-9.092-3.384-.412-3.274-2.412-6.108-5.365-7.591-2.418-1.216-5.182-1.379-7.682-.506l-2.945-5.101c-3.414-6.305-12.739-7.535-17.672-2.326l-2.508 2.508-4.558-4.559c-4.181-4.357-11.707-4.357-15.886.001l-4.558 4.558-4.685-4.686c-4.38-4.378-11.505-4.378-15.886.001l-4.748 4.748-4.748-4.748c-4.179-4.359-11.706-4.358-15.885-.001l-4.686 4.685-4.558-4.557c-4.179-4.359-11.706-4.358-15.885-.001l-4.559 4.558-4.748-4.749c-4.181-4.357-11.706-4.357-15.886.001l-3.548 3.548v-15.724l3.548 3.548c4.181 4.359 11.705 4.358 15.887 0l4.748-4.748 4.558 4.558c4.38 4.38 11.506 4.38 15.886 0l4.558-4.558 4.685 4.684c2.121 2.122 4.942 3.291 7.943 3.291s5.821-1.169 7.942-3.29l4.749-4.749 4.748 4.749c4.38 4.378 11.505 4.378 15.886-.001l4.684-4.685 4.558 4.558c4.38 4.38 11.506 4.379 15.887 0l4.558-4.558 7.468 7.469c3.589 3.588 9.164 4.324 13.56 1.785l6.7-3.868 4.237 7.339c1.972 3.418 5.779 5.329 9.699 4.874l5.757-.67.938 8.057c.46 3.959 3.232 7.235 7.061 8.346l7.499 2.173-1.209 4.169c-1.002 3.46-.042 7.19 2.504 9.735l10.043 10.043z"/></g></g></svg>