<svg height="512pt" viewBox="0 0 512 512" width="512pt" xmlns="http://www.w3.org/2000/svg"><path d="m492 471.996094h-131v-136c0-11.046875-8.953125-20-20-20s-20 8.953125-20 20v136h-41v-400.796875h21c11.046875 0 20 8.953125 20 20v84.796875c0 11.042968 8.953125 20 20 20s20-8.957032 20-20v-84.796875c0-33.136719-26.863281-60-60-60h-26.808594c-3.289062-6.652344-7.886718-12.667969-13.648437-17.628907-12.363281-10.652343-28.714844-15.371093-44.851563-12.949218l-164.589844 24.691406c-14.207031 2.128906-27.191406 9.296875-36.566406 20.179688-9.375 10.886718-14.535156 24.789062-14.535156 39.15625v407.347656c0 11.042968 8.953125 20 20 20h472c11.046875 0 20-8.957032 20-20 0-11.046875-8.953125-20-20-20zm-252 0h-200v-387.347656c0-9.980469 7.164062-18.296876 17.03125-19.78125l164.597656-24.6875c6.316406-.949219 10.734375 1.910156 12.8125 3.699218 2.074219 1.789063 5.558594 5.742188 5.558594 12.125zm187.9375-267.777344c-7.851562-7.765625-7.925781-20.429688-.160156-28.285156 7.765625-7.855469 20.429687-7.929688 28.285156-.160156l38.148438 37.714843c11.472656 11.339844 17.789062 26.4375 17.789062 42.507813 0 16.066406-6.316406 31.164062-17.789062 42.503906l-38.148438 37.71875c-3.898438 3.851562-8.980469 5.777344-14.0625 5.777344-5.15625 0-10.3125-1.984375-14.222656-5.941406-7.765625-7.855469-7.691406-20.515626.160156-28.28125l32.144531-31.777344h-119.082031c-11.046875 0-20-8.957032-20-20 0-11.046875 8.953125-20 20-20h119.082031zm-226.9375 30.777344v44c0 11.042968-8.953125 20-20 20s-20-8.957032-20-20v-44c0-11.046875 8.953125-20 20-20s20 8.953125 20 20zm0 0"/></svg>