<svg id="_30-delete" height="512" viewBox="0 0 192 192" width="512" xmlns="http://www.w3.org/2000/svg" data-name="30-delete"><path d="m176 32h-48v-8a24.028 24.028 0 0 0 -24-24h-16a24.028 24.028 0 0 0 -24 24v8h-48a8 8 0 0 0 -8 8v24a8 8 0 0 0 8 8h8.515l7.5 112.532a8 8 0 0 0 7.985 7.468h112a8 8 0 0 0 7.982-7.468l7.503-112.532h8.515a8 8 0 0 0 8-8v-24a8 8 0 0 0 -8-8zm-96-8a8.009 8.009 0 0 1 8-8h16a8.009 8.009 0 0 1 8 8v8h-32zm64.516 152h-97.032l-6.933-104h110.9zm23.484-120h-144v-8h144z"/><path d="m88 88h16v72h-16z"/><path d="m120 88h16v72h-16z"/><path d="m56 88h16v72h-16z"/></svg>