<svg id="Capa_1" enable-background="new 0 0 512.011 512.011" height="512" viewBox="0 0 512.011 512.011" width="512" xmlns="http://www.w3.org/2000/svg"><g><g><path d="m249.585 136.784h65.403v160.5h-65.403z" fill="#fcf5f5" transform="matrix(.707 .707 -.707 .707 236.146 -136.039)"/></g><g><path d="m251.628 134.74h65.403v160.5h-65.403z" fill="#fcf5f5" transform="matrix(.707 .707 -.707 .707 235.3 -138.082)"/></g><g><path d="m315.909 137.165-15 15 31.246 31.247-98.49 98.49 15 15 113.49-113.49z" fill="#ebe1dc"/></g><g><path d="m217.231 348.387c5.77-6.096 10.779-11.88 15.148-17.296l-14.289-14.289c-3.094-3.093-7.9-3.673-11.64-1.403l-11.149 6.766c-5.203 3.158-11.891 2.352-16.195-1.952-4.304-4.304-5.11-10.992-1.952-16.195l6.766-11.149c2.27-3.74 1.69-8.546-1.403-11.64l-14.289-14.289c-5.417 4.369-11.2 9.379-17.296 15.148-30.709 29.062-32.714 49.968-75.977 81.019l12.842 12.842c3.093 3.093 7.9 3.673 11.64 1.403l11.149-6.766c5.203-3.158 11.891-2.352 16.195 1.952s5.11 10.991 1.952 16.195l-6.766 11.149c-2.27 3.74-1.69 8.546 1.403 11.64l12.842 12.842c31.051-43.263 51.957-45.269 81.019-75.977z" fill="#8c8787"/></g><g><path d="m121.968 399.882 6.766-11.149c3.158-5.203 2.352-11.891-1.952-16.195s-10.991-5.11-16.195-1.952l-11.149 6.766c-3.74 2.27-8.546 1.69-11.64-1.403l-12.842-12.842c-1.422 1.02-2.887 2.052-4.4 3.095-25.925 17.867-47.56 39.392-58.587 51.144-5.145 5.483-5.936 13.733-1.942 20.103 4.355 6.947 11.617 16.747 23.357 28.487s21.54 19.002 28.487 23.357c6.37 3.994 14.62 3.202 20.103-1.942 11.752-11.027 33.277-32.663 51.144-58.587 1.043-1.513 2.074-2.979 3.094-4.4l-12.842-12.842c-3.093-3.094-3.672-7.9-1.402-11.64z" fill="#f6de91"/></g><g><path d="m183.922 292.869-6.766 11.149c-3.158 5.203-2.352 11.891 1.952 16.195 4.304 4.304 10.992 5.11 16.195 1.952l11.149-6.766c3.74-2.27 8.546-1.69 11.64 1.403l14.289 14.289c21.406-26.541 27.053-44.067 27.053-44.067l-47.135-47.135s-17.527 5.646-44.067 27.053l14.289 14.289c3.091 3.092 3.67 7.899 1.401 11.638z" fill="#f6de91"/></g><g><path d="m218.091 316.802c-1.811-1.811-4.208-2.753-6.635-2.773l4.858 4.858c-4.927 6.109-10.577 12.631-17.083 19.506-28.532 30.149-50.095 35.771-78.302 68.91.423 1.556 1.24 3.018 2.442 4.22l12.842 12.842c31.05-43.263 51.956-45.268 81.018-75.977 5.77-6.096 10.779-11.88 15.148-17.296z" fill="#7d7878"/></g><g><path d="m123.37 411.522c-3.093-3.094-3.673-7.9-1.403-11.64l6.766-11.149c3.158-5.203 2.352-11.891-1.952-16.195s-10.991-5.11-16.195-1.952l-9.008 5.467c.021 2.694-.676 5.41-2.15 7.839l-7.63 12.573c-2.56 4.218-1.906 9.638 1.582 13.127l14.482 14.482c-1.151 1.604-2.314 3.256-3.49 4.963-15.886 23.052-34.334 43.091-47.926 56.635 1.959 1.383 3.774 2.587 5.424 3.621 6.37 3.994 14.621 3.202 20.103-1.942 11.752-11.027 33.277-32.663 51.144-58.587 1.043-1.513 2.074-2.979 3.094-4.4z" fill="#f6d879"/></g><g><path d="m245.362 272.953c-2.895 6.848-10.598 22.629-27.339 43.788.022.021.045.04.067.062l14.289 14.289c21.406-26.541 27.053-44.067 27.053-44.067z" fill="#f6d879"/></g><g><ellipse cx="69.632" cy="429.688" fill="#fcf5f5" rx="19.498" ry="19.498" transform="matrix(.924 -.383 .383 .924 -159.134 59.355)"/></g><g><path d="m481.471 179.674c-3.813-3.605-9.018-5.269-14.237-4.729-10.343 1.07-21.278-1.942-30.98-11.644-9.622-9.622-12.156-20.434-10.634-30.848.789-5.398-.871-10.864-4.729-14.722l-44.717-44.717c-19.331-19.331-43.885-32.596-70.648-38.169l-68.741-14.313c-8.683-1.808-17.24 3.712-19.123 12.445-1.716 7.959 3.008 15.918 10.645 18.741l79.082 29.232c3.408 1.26 6.504 3.243 9.073 5.812 7.698 7.698 9.576 19.473 4.654 29.184l-16.459 32.471 46.247 46.247 12.146-6.156c14.518-7.359 32.121-4.552 43.631 6.958l.135.135c7.968 7.968 11.853 18.974 10.877 29.948-.461 5.178 1.496 10.28 5.172 13.956l17.585 17.584c3.959 3.959 10.022 4.936 15 2.374 7.024-3.615 17.532-10.226 28.862-21.556 10.32-10.32 15.899-19.132 18.885-25.271 2.465-5.068 1.345-11.145-2.751-15.018z" fill="#dcd2cd"/></g><g><path d="m500.447 197.616-18.975-17.942c-1.432-1.355-3.062-2.435-4.814-3.227l5.573 5.27c4.095 3.872 5.216 9.949 2.751 15.017-2.987 6.139-8.565 14.951-18.885 25.271-11.33 11.33-21.838 17.941-28.862 21.556-2.972 1.53-6.329 1.789-9.396.914l12.612 12.612c3.959 3.959 10.022 4.936 15 2.374 7.024-3.615 17.532-10.226 28.862-21.556 10.32-10.32 15.899-19.132 18.885-25.271 2.465-5.068 1.344-11.145-2.751-15.018z" fill="#c8beb9"/></g><g><path d="m69.632 402.69c-14.887 0-26.998 12.111-26.998 26.998s12.111 26.998 26.998 26.998 26.998-12.111 26.998-26.998-12.111-26.998-26.998-26.998zm0 38.996c-6.616 0-11.998-5.382-11.998-11.998s5.382-11.998 11.998-11.998c6.615 0 11.998 5.382 11.998 11.998s-5.382 11.998-11.998 11.998z"/><path d="m505.6 192.167-18.976-17.943c-5.348-5.056-12.706-7.513-20.162-6.74-9.273.961-17.65-2.233-24.904-9.487-7.1-7.099-9.885-15.1-8.517-24.46 1.14-7.793-1.421-15.684-6.847-21.11l-44.718-44.718c-20.418-20.418-46.153-34.322-74.422-40.208l-68.741-14.313c-12.693-2.645-25.249 5.525-27.984 18.207-2.468 11.444 4.143 23.205 15.377 27.357l79.081 29.231c2.377.878 4.579 2.29 6.37 4.081 5.42 5.42 6.733 13.654 3.268 20.489l-15.918 31.403-21.527 21.527c-2.929 2.929-2.929 7.678 0 10.606 1.465 1.464 3.385 2.197 5.304 2.197s3.839-.732 5.304-2.197l17.067-17.067 35.639 35.64-81.309 81.309-35.64-35.64 43.486-43.486c2.929-2.929 2.929-7.678 0-10.607s-7.677-2.93-10.607 0l-46.653 46.653c-2.961 1.032-20.645 7.718-46.053 28.21-5.952 4.8-11.921 10.028-17.744 15.539-12.81 12.124-21.286 22.506-28.511 33.234-22.427 33.31-99.88 90.741-110.763 102.34-7.464 7.954-8.627 19.969-2.828 29.218 6.018 9.6 14.23 19.628 24.409 29.807 10.178 10.179 20.207 18.391 29.806 24.409 3.932 2.465 8.363 3.672 12.77 3.672 5.96 0 11.876-2.208 16.449-6.499 4.42-4.147 8.887-8.535 13.276-13.042 2.89-2.967 2.828-7.715-.14-10.605-2.967-2.891-7.716-2.829-10.605.14-4.233 4.346-8.538 8.575-12.794 12.569-2.988 2.803-7.507 3.239-10.988 1.057-5.943-3.726-15.481-10.621-27.167-22.306-11.686-11.686-18.58-21.224-22.306-27.168-2.182-3.48-1.747-7.999 1.057-10.987 10.376-11.058 31.458-32.118 56.669-49.613l8.388 8.388c5.554 5.553 14.122 6.587 20.834 2.511l11.149-6.767c2.254-1.369 5.133-1.022 7 .844 1.866 1.866 2.212 4.744.843 7l-6.765 11.148c-4.075 6.713-3.043 15.281 2.511 20.835l8.388 8.388c-6.325 9.103-13.277 17.708-16.913 22.09-2.645 3.188-2.204 7.916.983 10.561s7.916 2.205 10.561-.983c3.889-4.687 32.581-48.793 68.358-74.828 10.459-7.611 21.111-15.701 33.234-28.511 5.515-5.828 10.743-11.797 15.539-17.743 20.493-25.408 27.178-43.091 28.21-46.053l88.935-88.935 11.079-5.616c11.657-5.908 25.694-3.669 34.928 5.562l.145.145c6.328 6.327 9.502 15.067 8.709 23.98-.652 7.344 2.022 14.606 7.34 19.922l17.584 17.584c3.939 3.94 9.145 6.004 14.424 6.004 3.163 0 6.353-.742 9.311-2.265 7.344-3.779 18.636-10.823 30.734-22.921 9.107-9.107 15.945-18.29 20.325-27.292 3.914-8.046 2.17-17.589-4.342-23.747zm-293.816 151.064c-11.227 11.863-20.973 19.111-31.291 26.785-13.883 10.325-28.195 20.971-45.116 42.905l-6.702-6.702c-.652-.652-.774-1.658-.295-2.446l6.765-11.148c4.966-8.181 3.708-18.622-3.06-25.389-6.769-6.768-17.21-8.026-25.389-3.061l-11.149 6.767c-.787.479-1.792.356-2.445-.295l-6.703-6.703c21.934-16.921 32.579-31.233 42.904-45.116 7.674-10.318 14.922-20.064 26.786-31.292 3.844-3.638 7.752-7.131 11.672-10.458l9.455 9.455c.652.652.773 1.658.295 2.446l-6.766 11.149c-4.965 8.182-3.707 18.622 3.06 25.389 6.768 6.767 17.207 8.025 25.39 3.06l11.148-6.767c.788-.477 1.793-.357 2.445.295l9.455 9.455c-3.326 3.917-6.819 7.825-10.459 11.671zm19.896-23.446-8.286-8.286c-3.285-3.286-7.624-4.989-12.011-4.989-3.029 0-6.081.812-8.824 2.477l-11.147 6.767c-2.257 1.368-5.136 1.021-7.001-.844-1.866-1.866-2.212-4.745-.843-7l6.766-11.149c4.074-6.713 3.042-15.28-2.511-20.834l-8.286-8.286c14.404-10.819 25.374-16.438 30.967-18.94l40.118 40.118c-2.504 5.591-8.123 16.562-18.942 30.966zm264.773-110.431c-2.509 5.156-7.571 13.376-17.444 23.248-10.728 10.728-20.599 16.901-26.991 20.191-2.075 1.067-4.593.663-6.265-1.009l-17.584-17.585c-2.168-2.168-3.264-5.08-3.005-7.987 1.188-13.349-3.566-26.44-13.035-35.906l-.145-.145c-8.687-8.687-20.204-13.242-31.895-13.242-6.935 0-13.931 1.604-20.43 4.898l-7.297 3.698-38.558-38.557 14.001-27.622c6.405-12.637 3.978-27.859-6.04-37.877-3.311-3.312-7.384-5.921-11.776-7.544l-79.083-29.231c-4.275-1.581-6.818-5.934-5.914-10.125 1.004-4.655 5.609-7.651 10.263-6.684l68.74 14.313c25.402 5.29 48.527 17.783 66.874 36.13l44.718 44.718c2.123 2.123 3.075 5.16 2.611 8.333-2.043 13.976 2.366 26.852 12.751 37.237 10.454 10.455 23.267 15.224 37.055 13.801 3.116-.322 6.145.668 8.312 2.718l18.976 17.942c1.729 1.633 2.195 4.16 1.161 6.287z"/></g></g></svg>