<?xml version="1.0" encoding="iso-8859-1"?>
<!-- Generator: Adobe Illustrator 19.0.0, SVG Export Plug-In . SVG Version: 6.00 Build 0)  -->
<svg version="1.1" id="Capa_1" xmlns="http://www.w3.org/2000/svg" xmlns:xlink="http://www.w3.org/1999/xlink" x="0px" y="0px"
	 viewBox="0 0 512 512" style="enable-background:new 0 0 512 512;" xml:space="preserve">
<g>
	<g>
		<path d="M473.667,98.737v-71.07H38.333v71.07L0,184.071v29.446v0.308c0,26.023,15.814,48.418,38.333,58.094v212.414h435.334
			V271.919c22.52-9.677,38.333-32.071,38.333-58.094v-0.308v-29.446L473.667,98.737z M478.864,183.517H347.339l-11.38-66.565
			h113.003L478.864,183.517z M385.379,217.667c-1.911,16.503-15.972,29.358-32.979,29.358c-17.007,0-31.068-12.855-32.979-29.358
			H385.379z M68.333,57.667h375.334v29.285H68.333V57.667z M195.096,183.517l11.38-66.565h99.047l11.38,66.565H195.096z
			 M288.979,217.667c-1.911,16.503-15.973,29.358-32.979,29.358c-17.006,0-31.068-12.855-32.98-29.358H288.979z M63.039,116.951
			h113.003l-11.38,66.565H33.137L63.039,116.951z M192.579,217.667c-1.911,16.503-15.973,29.358-32.98,29.358
			c-17.007,0-31.067-12.855-32.978-29.358H192.579z M30.221,217.667H96.18c-1.911,16.503-15.973,29.358-32.98,29.358
			S32.132,234.17,30.221,217.667z M95.12,390.333H68.333v-47.867h74.654L95.12,390.333z M185.413,342.467H209v47.867h-71.454
			L185.413,342.467z M369,454.334h-44.667v-0.001V342.467H369V454.334z M443.666,454.333H399V312.467H294.333v141.867h-226v-34H239
			V312.467H68.333v-35.668c17.219-1.392,32.505-9.706,43.067-22.161c11.602,13.681,28.899,22.387,48.199,22.387
			c19.301,0,36.598-8.706,48.2-22.387c11.602,13.681,28.899,22.387,48.2,22.387c19.301,0,36.598-8.706,48.2-22.387
			c11.602,13.681,28.899,22.387,48.2,22.387c19.301,0,36.598-8.706,48.2-22.387c10.562,12.455,25.848,20.769,43.067,22.161V454.333z
			 M448.8,247.025c-17.007,0-31.068-12.855-32.979-29.358h65.959C479.868,234.17,465.807,247.025,448.8,247.025z"/>
	</g>
</g>
<g>
</g>
<g>
</g>
<g>
</g>
<g>
</g>
<g>
</g>
<g>
</g>
<g>
</g>
<g>
</g>
<g>
</g>
<g>
</g>
<g>
</g>
<g>
</g>
<g>
</g>
<g>
</g>
<g>
</g>
</svg>
